{
  "extensionsUsed": [
    "KHR_materials_transmission",
    "KHR_materials_clearcoat",
    "KHR_materials_ior",
    "KHR_materials_specular",
    "KHR_materials_emissive_strength",
    "KHR_texture_transform"
  ],
  "accessors": [
    {
      "bufferView": 0,
      "componentType": 5126,
      "count": 8190,
      "type": "VEC3",
      "max": [
        3.994632,
        1.0,
        1.1023583
      ],
      "min": [
        1.8435705,
        -1.5086067E-15,
        -1.0531398
      ]
    },
    {
      "bufferView": 1,
      "componentType": 5125,
      "count": 45360,
      "type": "SCALAR",
      "max": [
        8189.0
      ],
      "min": [
        0.0
      ]
    },
    {
      "bufferView": 2,
      "componentType": 5126,
      "count": 8190,
      "type": "VEC3",
      "max": [
        0.9999223,
        0.62924767,
        0.99993354
      ],
      "min": [
        -0.99892527,
        -0.6158695,
        -0.9999954
      ]
    }
  ],
  "asset": {
    "version": "2.0"
  },
  "buffers": [
    {
      "uri": "data:application/octet-stream;base64,",
      "byteLength": 98280
    },
    {
      "uri": "data:application/octet-stream;base64,",
      "byteLength": 181440
    },
    {
      "uri": "data:application/octet-stream;base64,",
      "byteLength": 98280
    }
  ],
  "bufferViews": [
    {
      "buffer": 0,
      "byteLength": 98280,
      "target": 34962
    },
    {
      "buffer": 1,
      "byteLength": 181440,
      "target": 34963
    },
    {
      "buffer": 2,
      "byteLength": 98280,
      "target": 34962
    }
  ],
  "materials": [
    {
      "name": "Custom",
      "extensions": {
        "KHR_materials_transmission": {},
        "KHR_materials_clearcoat": {},
        "KHR_materials_ior": {
          "ior": 1.0
        },
        "KHR_materials_specular": {
          "specularFactor": 0.5,
          "specularColorFactor": [
            1.0,
            1.0,
            1.0
          ]
        }
      },
      "pbrMetallicRoughness": {
        "metallicFactor": 0.0
      }
    }
  ],
  "meshes": [
    {
      "primitives": [
        {
          "attributes": {
            "POSITION": 0,
            "NORMAL": 2
          },
          "indices": 1,
          "material": 0
        }
      ]
    }
  ],
  "nodes": [
    {
      "mesh": 0,
      "name": "MESH 0"
    }
  ],
  "samplers": [
    {
      "magFilter": 9729,
      "minFilter": 9729
    }
  ],
  "scene": 0,
  "scenes": [
    {
      "nodes": [
        0
      ],
      "extensions": {}
    }
  ],
  "extensions": {}
}